<?xml version="1.0" encoding="utf-8"?>
<svg xmlns:xlink="http://www.w3.org/1999/xlink" xmlns="http://www.w3.org/2000/svg" width="100px" height="100px" viewBox="0 0 100 100" version="1.1">
  <defs>
    <path d="M0 0L100 0L100 100L0 100L0 0Z" id="path_1"/>
    <clipPath id="mask_1">
      <use xlink:href="#path_1"/>
    </clipPath>
  </defs>
  <g id="docker">
    <path d="M0 0L100 0L100 100L0 100L0 0Z" id="背景" fill="#FFFFFF" fill-opacity="0" fill-rule="evenodd" stroke="none"/>
    <g clip-path="url(#mask_1)">
      <path d="M98.3736 44.0895C95.9217 42.4391 89.4801 41.7353 84.7971 42.9961C84.5452 38.3308 82.1393 34.3989 77.7377 30.9707L76.1095 29.8774L75.0236 31.5174C72.8902 34.756 71.9909 39.0731 72.308 42.9976C72.5598 45.4154 73.3999 48.1325 75.0236 50.1044C68.9272 53.6407 63.3093 52.8378 38.4259 52.8378L0.00895062 52.8378C-0.103644 58.4571 0.800075 69.2647 7.67279 78.0634C8.43132 79.0352 9.26392 79.976 10.1676 80.8812C15.7559 86.4769 24.199 90.5806 36.8244 90.591C56.084 90.6088 72.5865 80.1967 82.6252 55.0245C85.9289 55.0793 94.6476 55.6156 98.9144 47.371C99.0181 47.2317 100 45.1843 100 45.1843L98.3736 44.0909L98.3736 44.0895ZM25.0805 38.2908L14.2773 38.2908L14.2773 49.094L25.0805 49.094L25.0805 38.2908L25.0805 38.2908ZM39.0378 38.2908L28.2346 38.2908L28.2346 49.094L39.0378 49.094L39.0378 38.2908L39.0378 38.2908ZM52.9951 38.2908L42.1919 38.2908L42.1919 49.094L52.995 49.094L52.995 38.2908L52.9951 38.2908ZM66.9523 38.2908L56.1492 38.2908L56.1492 49.094L66.9523 49.094L66.9523 38.2908L66.9523 38.2908ZM11.1262 38.2908L0.320067 38.2908L0.320067 49.094L11.1232 49.094L11.1232 38.2908L11.1262 38.2908ZM25.0835 24.6447L14.2803 24.6447L14.2803 35.4478L25.0835 35.4478L25.0835 24.6447L25.0835 24.6447ZM39.0407 24.6447L28.2376 24.6447L28.2376 35.4478L39.0407 35.4478L39.0407 24.6447L39.0407 24.6447ZM52.998 24.6447L42.1949 24.6447L42.1949 35.4478L52.998 35.4478L52.998 24.6447L52.998 24.6447ZM52.9936 11L42.1904 11L42.1904 21.8031L52.9936 21.8031L52.9936 11L52.9936 11Z" id="形状" fill="#1D63ED" fill-rule="evenodd" stroke="none"/>
    </g>
  </g>
</svg>
