<?xml version="1.0" encoding="utf-8"?>
<svg xmlns:xlink="http://www.w3.org/1999/xlink" xmlns="http://www.w3.org/2000/svg" width="18px" height="18px" viewBox="0 0 18 18" version="1.1">
  <defs>
    <rect width="18" height="18" id="artboard_1"/>
    <clipPath id="clip_1">
      <use xlink:href="#artboard_1" clip-rule="evenodd"/>
    </clipPath>
  </defs>
  <g id="画板" clip-path="url(#clip_1)">
    <use xlink:href="#artboard_1" stroke="none" fill="#C46B6B" fill-opacity="0"/>
    <g id="terminal" transform="translate(0 1)" artboard="03e1846c-4c98-4a9c-b86b-073eacb63720">
      <path d="M1.999 0L16.001 0Q16.0992 0 16.1969 0.00962573Q16.2947 0.0192515 16.391 0.0384102Q16.4873 0.057569 16.5813 0.0860763Q16.6753 0.114584 16.766 0.152165Q16.8567 0.189746 16.9433 0.236039Q17.0299 0.282333 17.1116 0.336892Q17.1932 0.391452 17.2691 0.453752Q17.3451 0.516052 17.4145 0.585494Q17.4839 0.654935 17.5462 0.730848Q17.6085 0.806761 17.6631 0.888415Q17.7177 0.970069 17.764 1.05668Q17.8103 1.14329 17.8478 1.23402Q17.8854 1.32474 17.9139 1.41872Q17.9424 1.5127 17.9616 1.60901Q17.9807 1.70533 17.9904 1.80306Q18 1.9008 18 1.999L18 14.001Q18 14.0992 17.9904 14.1969Q17.9807 14.2947 17.9616 14.391Q17.9424 14.4873 17.9139 14.5813Q17.8854 14.6753 17.8478 14.766Q17.8103 14.8567 17.764 14.9433Q17.7177 15.0299 17.6631 15.1116Q17.6085 15.1932 17.5462 15.2692Q17.4839 15.3451 17.4145 15.4145Q17.3451 15.4839 17.2691 15.5462Q17.1932 15.6085 17.1116 15.6631Q17.0299 15.7177 16.9433 15.764Q16.8567 15.8103 16.766 15.8478Q16.6753 15.8854 16.5813 15.9139Q16.4873 15.9424 16.391 15.9616Q16.2947 15.9807 16.1969 15.9904Q16.0992 16 16.001 16L1.999 16Q1.9008 16 1.80306 15.9904Q1.70533 15.9807 1.60901 15.9616Q1.5127 15.9424 1.41872 15.9139Q1.32474 15.8854 1.23402 15.8478Q1.14329 15.8103 1.05668 15.764Q0.970069 15.7177 0.888415 15.6631Q0.806761 15.6085 0.730848 15.5462Q0.654935 15.4839 0.585494 15.4145Q0.516052 15.3451 0.453752 15.2692Q0.391452 15.1932 0.336892 15.1116Q0.282333 15.0299 0.236039 14.9433Q0.189746 14.8567 0.152165 14.766Q0.114584 14.6753 0.0860763 14.5813Q0.057569 14.4873 0.0384102 14.391Q0.0192515 14.2947 0.00962573 14.1969Q0 14.0992 0 14.001L0 1.999Q0 1.9008 0.00962573 1.80306Q0.0192515 1.70533 0.0384102 1.60901Q0.057569 1.5127 0.0860763 1.41872Q0.114584 1.32474 0.152165 1.23402Q0.189746 1.14329 0.236039 1.05668Q0.282333 0.970069 0.336892 0.888415Q0.391452 0.806761 0.453752 0.730848Q0.516052 0.654935 0.585494 0.585494Q0.654935 0.516052 0.730848 0.453752Q0.806761 0.391452 0.888415 0.336892Q0.970069 0.282333 1.05668 0.236039Q1.14329 0.189746 1.23402 0.152165Q1.32474 0.114584 1.41872 0.0860763Q1.5127 0.057569 1.60901 0.0384102Q1.70533 0.0192515 1.80306 0.00962573Q1.9008 0 1.999 0Z" id="矩形-2" fill="#000000" fill-rule="evenodd" stroke="none"/>
      <path d="M4.31254 3.78125L2.87504 5.21875L5.65629 8L2.87504 10.7813L4.31254 12.2188L7.81254 8.71875L8.50004 8L7.81254 7.28125L4.31254 3.78125ZM9.49998 10L9.49998 12L15.5 12L15.5 10L9.49998 10Z" id="形状" fill="#FFFFFF" fill-rule="evenodd" stroke="none"/>
    </g>
  </g>
</svg>
