<?xml version="1.0"?>
<svg xmlns="http://www.w3.org/2000/svg" xmlns:xlink="http://www.w3.org/1999/xlink" id="&#x56FE;&#x5C42;_1" data-name="&#x56FE;&#x5C42; 1" viewBox="0 0 120 120">
  <defs>
    <style>.cls-1{fill:url(#&#x672A;&#x547D;&#x540D;&#x7684;&#x6E10;&#x53D8;_30);}.cls-2{fill:#4a6cb3;}.cls-3{fill:#103a89;}.cls-4{fill:url(#&#x672A;&#x547D;&#x540D;&#x7684;&#x6E10;&#x53D8;_26);}</style>
    <linearGradient id="&#x672A;&#x547D;&#x540D;&#x7684;&#x6E10;&#x53D8;_30" x1="0.42" y1="60" x2="119.89" y2="60" gradientUnits="userSpaceOnUse">
      <stop offset="0" stop-color="#4a6cb3"/>
      <stop offset="0.29" stop-color="#476bb1"/>
      <stop offset="0.5" stop-color="#3e66ad"/>
      <stop offset="0.69" stop-color="#2e5ea5"/>
      <stop offset="0.86" stop-color="#185399"/>
      <stop offset="1" stop-color="#00488d"/>
    </linearGradient>
    <linearGradient id="&#x672A;&#x547D;&#x540D;&#x7684;&#x6E10;&#x53D8;_26" x1="42.29" y1="68.89" x2="103.97" y2="68.89" gradientUnits="userSpaceOnUse">
      <stop offset="0" stop-color="#6b95ce"/>
      <stop offset="1" stop-color="#4a6cb3"/>
    </linearGradient>
  </defs>
  <path class="cls-1" d="M104.81,119.89a9.93,9.93,0,0,1-4-.87l-.15-.07-7.71-4a9.7,9.7,0,0,0-6.74-.85,21.33,21.33,0,0,0-3.39,1.12l-.15.07a57.62,57.62,0,0,1-24.8,4.26,62,62,0,0,1-39.65-17.35A58,58,0,0,1,.47,63.09a60.47,60.47,0,0,1,6-29,2.67,2.67,0,1,1,4.8,2.33A55.07,55.07,0,0,0,5.81,62.85C7,90.49,29.56,112.57,58.2,114.21a52.41,52.41,0,0,0,22.5-3.89A26.27,26.27,0,0,1,85,108.9a15,15,0,0,1,10.46,1.3l7.62,4a3.25,3.25,0,0,0,3,.07,1.75,1.75,0,0,0,.6-1.59L105,99A14.38,14.38,0,0,1,107,87.68l.2-.32a51.34,51.34,0,0,0,7.14-31.14c-2.18-28.63-25-50.46-53.08-50.77A54.84,54.84,0,0,0,24.52,19,2.67,2.67,0,0,1,21,15,60.18,60.18,0,0,1,61.35.11c30.87.34,56,24.29,58.34,55.71a56.41,56.41,0,0,1-7.85,34.23l-.27.45A9.06,9.06,0,0,0,110.21,98l0,.25,1.7,14.13a7,7,0,0,1-2.93,6.32A7.45,7.45,0,0,1,104.81,119.89Z"/>
  <circle class="cls-2" cx="22.57" cy="47.8" r="5.2"/>
  <path class="cls-3" d="M49,51.56a5.35,5.35,0,0,1-1.55,0c-.53,0-1.07-.05-1.6-.11a22.74,22.74,0,0,1-3.15-.61,24.06,24.06,0,0,1-5.91-2.51l-.27-.16c-5-3-8.79-8.11-8.47-14.19.29-5.45,4.71-11.31,10.68-10.51a7.42,7.42,0,0,1,4.09,2A6.28,6.28,0,0,1,44.52,30,19.92,19.92,0,0,1,44,34.51,29.35,29.35,0,0,0,43,41a14,14,0,0,0,1.28,6.29A10.43,10.43,0,0,0,48.12,51Z"/>
  <path class="cls-4" d="M47.76,58.24c.92-1-.08-2,1.26-1.68a39.55,39.55,0,0,1,10.63,3.63c3.83,2,7.28,4.74,11.39,6.21a17.82,17.82,0,0,0,3.74.94c3.83.52,7.69-.37,11.53-.82a36,36,0,0,1,13.21.68c1.39.37,3.63.84,4.31,2.33.52,1.13-.56,2.82-.9,3.86-.2.59.53.46-.61,2.59-.74,1.39-4.1,5.43-5.67,5.28L60.19,77.71a3.87,3.87,0,0,1-1.52-.48l-14.38-8a3.92,3.92,0,0,1-1-6.05Z"/>
  <path class="cls-3" d="M20.24,81.82c-1.61-2.81-3.09-5.92-3.09-9.23,0-3.13,1.9-5.87,4-8a27.85,27.85,0,0,1,15-7.83,26.86,26.86,0,0,1,4.11-.4c1.41,0,2.8-.19,4.22-.18a23.18,23.18,0,0,1,9.05,1.7,32.88,32.88,0,0,1,8.81,6C66.2,67.39,69.69,71.37,74,74.32a31.4,31.4,0,0,0,17.73,5.45,13.36,13.36,0,0,0,8.46-2.89A9.24,9.24,0,0,0,102,74.94a13.41,13.41,0,0,0,2-4.83c.15,2.38-.78,5.31-1.61,7.51A44.15,44.15,0,0,1,99,84.45,51.62,51.62,0,0,1,87.33,97.9C78.78,105,54,109.54,36.8,98.53,24.08,90.38,20.87,82.92,20.24,81.82Z"/>
</svg>
